<svg width="269" height="333" viewBox="0 0 269 333" fill="none" xmlns="http://www.w3.org/2000/svg">
<path d="M268.218 236.646L267.549 237.128L135.724 331.833L134.79 332.504L133.854 331.838L0.675781 237.133L0 236.651V163.984L2.41113 165.377L22.7617 177.126L23.5654 177.59V223.147L134.78 300.939L244.652 223.153V177.59L245.456 177.126L265.807 165.377L268.218 163.984V236.646ZM53.1299 18.3984L104.494 70.1221C104.87 69.9923 105.347 69.8312 105.919 69.6494C107.463 69.1587 109.698 68.5069 112.486 67.8555C118.059 66.5535 125.861 65.2469 134.782 65.2305C143.711 65.214 150.957 66.5224 155.984 67.8418C158.498 68.5015 160.46 69.165 161.801 69.667C162.209 69.8198 162.56 69.9587 162.852 70.0771L214.793 18.7695L216.713 16.873L217.466 19.4639L217.467 19.4648V19.4658C217.467 19.4668 217.467 19.4691 217.468 19.4707C217.469 19.474 217.471 19.4787 217.473 19.4844C217.476 19.4965 217.481 19.5145 217.487 19.5371C217.5 19.5827 217.52 19.6499 217.544 19.7373C217.593 19.9125 217.663 20.1712 217.753 20.5088C217.932 21.1844 218.187 22.1789 218.491 23.4629C219.101 26.0315 219.911 29.7636 220.721 34.4346C222.34 43.7743 223.958 56.8854 223.958 71.9805C223.958 80.6945 222.321 89.6713 220.7 96.4336C219.888 99.8225 219.075 102.673 218.465 104.679C218.16 105.682 217.905 106.475 217.726 107.019C217.713 107.056 217.7 107.092 217.688 107.127L222.911 115.483L231.033 111.065L234.738 109.049L233.314 113.02L225.404 135.077L230.962 131.676L234.809 129.321L233.318 133.578L224.096 159.925L233.232 177.786L233.655 178.612L233.151 179.391L203.774 224.857L200.816 229.436V205.651L187.328 236.467L185.243 241.23L184.276 236.121L181.798 223.032L177.518 244.104L177.431 244.531L177.14 244.856L150.554 274.506L149.854 275.286L148.857 274.961L134.811 270.374L122.167 274.944L121.221 275.286L120.5 274.585L90.0078 244.936L89.6201 244.559L89.5391 244.023L86.3555 223.022L83.1699 236.2L81.9707 241.161L80.1104 236.408L68.3994 206.487V229.286L65.4551 224.879L35.0801 179.411L34.5303 178.589L35.0176 177.727L45.0898 159.914L34.918 133.627L33.3174 129.493L37.1953 131.641L43.7148 135.25L34.9219 113.069L33.3857 109.193L37.127 111.035L46.209 115.505L50.8936 107.178C50.8796 107.137 50.8646 107.093 50.8496 107.049C50.669 106.513 50.4121 105.729 50.1055 104.729C49.492 102.727 48.6756 99.8529 47.8604 96.3486C46.2316 89.3477 44.5958 79.788 44.5957 69.6123C44.5957 56.5577 46.0539 43.949 47.5078 34.6162C48.2352 29.9468 48.9633 26.0892 49.5098 23.3965C49.783 22.0501 50.0107 20.9934 50.1709 20.2725C50.2509 19.9123 50.3141 19.6349 50.3574 19.4473C50.379 19.3538 50.3958 19.2819 50.4072 19.2334C50.4129 19.2094 50.4169 19.1904 50.4199 19.1777C50.4214 19.1716 50.423 19.1664 50.4238 19.1631C50.4242 19.1616 50.4246 19.16 50.4248 19.1592V19.1572L51.0967 16.3516L53.1299 18.3984ZM122.925 240.025L118.553 244.562L117.41 245.748L118.623 246.862L133.759 260.763L134.854 261.768L135.941 260.756L150.893 246.855L152.16 245.677L150.892 244.5L146.006 239.963L145.13 239.148L144.099 239.754L144.09 239.759C144.082 239.763 144.069 239.771 144.052 239.781C144.016 239.802 143.96 239.833 143.887 239.874C143.739 239.956 143.519 240.076 143.24 240.22C142.681 240.509 141.89 240.896 140.965 241.283C139.073 242.076 136.787 242.802 134.826 242.827C132.771 242.853 130.318 242.126 128.273 241.315C127.274 240.919 126.413 240.52 125.805 240.221C125.502 240.072 125.262 239.948 125.101 239.863C125.02 239.821 124.959 239.787 124.919 239.766C124.899 239.755 124.885 239.747 124.876 239.742L124.864 239.736L123.784 239.133L122.925 240.025ZM131.584 146.429L143.342 137.986L134.226 186.976L163.721 175.268L158.542 236.959L207.625 132.714L167.405 149.825L178.679 90.1729C178.679 90.1729 171.938 83.0121 160.667 79.4727C151.778 76.6813 143.342 76.6816 143.342 76.6816L131.584 146.429ZM90.5938 170.328L105.557 173.359L112.906 185.512L110.022 167.323L74.9756 138.501L90.5938 170.328ZM38.0244 79.4463L37.2207 79.9102L23.5654 87.7939V158.612L21.1543 157.22L0.803711 145.471L0 145.007V74.3115L0.803711 73.8477L35.6133 53.751L38.0244 52.3584V79.4463ZM232.605 53.751L267.414 73.8477L268.218 74.3115V145.007L267.414 145.471L247.064 157.22L244.652 158.612V87.7939L230.997 79.9102L230.193 79.4463V52.3584L232.605 53.751ZM207.439 42.3311L184.851 81.4336L184 82.9043L185.517 83.6719C185.518 83.6724 185.52 83.6733 185.523 83.6748C185.529 83.6779 185.539 83.6835 185.553 83.6904C185.58 83.7046 185.623 83.727 185.68 83.7568C185.793 83.8166 185.964 83.9069 186.183 84.0273C186.621 84.2687 187.256 84.6298 188.028 85.0986C189.576 86.0379 191.662 87.4053 193.822 89.1211C196.461 91.2174 199.251 93.9853 201.402 96.2568C202.473 97.3871 203.375 98.3843 204.009 99.0977C204.326 99.4541 204.576 99.7393 204.745 99.9346C204.83 100.032 204.894 100.107 204.938 100.157C204.959 100.182 204.975 100.201 204.985 100.214C204.991 100.22 204.995 100.225 204.997 100.228C204.998 100.229 204.999 100.23 205 100.23V100.231L206.628 102.146L207.684 99.8652L206.225 99.1895C207.609 99.8307 207.681 99.8631 207.685 99.8643V99.8633C207.685 99.8626 207.686 99.8613 207.687 99.8604C207.688 99.8581 207.689 99.854 207.69 99.8506C207.694 99.8437 207.698 99.8344 207.703 99.8232C207.714 99.8 207.728 99.767 207.746 99.7256C207.783 99.6424 207.835 99.5223 207.899 99.3662C208.029 99.0536 208.211 98.5945 208.43 97.9932C208.868 96.7902 209.454 95.0135 210.065 92.6816C211.288 88.017 212.609 81.1302 213.043 72.1641C213.477 63.196 212.817 55.8503 212.045 50.7344C211.659 48.1767 211.245 46.1748 210.925 44.8047C210.765 44.1196 210.628 43.5915 210.53 43.2314C210.481 43.0517 210.442 42.9136 210.414 42.8184C210.4 42.7708 210.39 42.733 210.382 42.707C210.378 42.6943 210.374 42.6842 210.372 42.6768C210.371 42.6731 210.37 42.6694 210.369 42.667C210.369 42.666 210.368 42.6648 210.368 42.6641V42.6631C210.362 42.6646 210.264 42.6939 208.831 43.1348L210.368 42.6621L209.284 39.1377L207.439 42.3311ZM58.7266 42.7451L60.2861 43.1348C58.8159 42.7678 58.7315 42.7469 58.7266 42.7461L58.7256 42.7471V42.75C58.7251 42.752 58.7244 42.7548 58.7236 42.7578C58.722 42.7646 58.7196 42.7745 58.7168 42.7861C58.711 42.8098 58.7027 42.844 58.6924 42.8877C58.6717 42.9756 58.6416 43.1039 58.6045 43.2715C58.5301 43.6073 58.4258 44.1025 58.3008 44.751C58.0507 46.0487 57.7197 47.9639 57.3896 50.458C56.7294 55.447 56.0723 62.7564 56.0723 72.0869C56.0723 81.495 57.3966 88.4227 58.7422 93.0303C59.4147 95.3329 60.092 97.0538 60.6094 98.2129C60.868 98.7922 61.0869 99.2314 61.2451 99.5322C61.3242 99.6826 61.3883 99.7991 61.4346 99.8809C61.4576 99.9215 61.4763 99.9538 61.4902 99.9775L61.5137 100.017L61.5166 100.022C61.5177 100.023 61.5477 100.005 62.8916 99.1895L61.5176 100.023L62.6602 101.907L64.1055 100.244L64.1094 100.24C64.1122 100.237 64.1171 100.231 64.123 100.225C64.1353 100.211 64.1541 100.188 64.1787 100.16C64.2282 100.104 64.3025 100.019 64.3984 99.9111C64.5908 99.6938 64.8726 99.3782 65.2256 98.9883C65.9325 98.2074 66.925 97.1297 68.0664 95.9463C70.3724 93.5556 73.2049 90.8161 75.5029 89.1689C77.8516 87.4856 80.2331 86.1176 82.0332 85.168C82.931 84.6944 83.6799 84.3273 84.2012 84.0801C84.4614 83.9566 84.6652 83.8627 84.8018 83.8008C84.8696 83.77 84.9215 83.7473 84.9551 83.7324C84.9713 83.7252 84.9835 83.7192 84.9912 83.7158C84.9947 83.7143 84.9984 83.7126 85 83.7119H85.001L86.7002 82.9727L85.7285 81.3945L61.6553 42.292L59.6523 39.0381L58.7266 42.7451ZM64.2676 98.3584L64.2686 98.3604C64.2683 98.36 64.2675 98.3589 64.2666 98.3574H64.2676V98.3584ZM135.594 0.460938L186.664 30.1914L188.411 31.209L187.027 32.6816L173.722 46.8447L172.842 47.7803L171.735 47.1299L134.776 25.3975L97.0166 47.1367L95.9658 47.7422L95.0957 46.8984L80.4883 32.7354L78.9375 31.2324L80.8232 30.1777L134.001 0.447266L134.802 0L135.594 0.460938Z" fill="#161616"></path>
</svg>