<svg width="1203" height="385" viewBox="0 0 1203 385" fill="none" xmlns="http://www.w3.org/2000/svg">
<path d="M310.35 273.818L309.574 274.375L157.043 383.957L155.963 384.732L154.879 383.962L0.782227 274.38L0 273.824V189.743L2.79004 191.354L26.3369 204.948L27.2676 205.485V258.198L155.95 348.21L283.082 258.206V205.485L284.012 204.948L307.559 191.354L310.35 189.743V273.818ZM61.4756 21.2891L120.908 81.1367C121.343 80.9866 121.895 80.8002 122.557 80.5898C124.343 80.022 126.93 79.2683 130.155 78.5146C136.603 77.0082 145.632 75.4956 155.954 75.4766C166.285 75.4576 174.669 76.9724 180.486 78.499C183.395 79.2624 185.665 80.0294 187.217 80.6104C187.689 80.787 188.094 80.947 188.432 81.084L248.532 21.7178L250.753 19.5234L251.625 22.5215L249.839 23.041C251.545 22.5449 251.622 22.523 251.626 22.5225V22.5244C251.626 22.5256 251.626 22.5275 251.627 22.5293C251.628 22.5332 251.63 22.539 251.632 22.5459C251.636 22.56 251.642 22.5802 251.649 22.6064C251.664 22.6593 251.687 22.7366 251.715 22.8379C251.771 23.0407 251.853 23.3397 251.957 23.7305C252.164 24.5124 252.459 25.6632 252.812 27.1494C253.517 30.1216 254.454 34.4391 255.391 39.8438C257.264 50.6506 259.137 65.8208 259.137 83.2871C259.137 93.37 257.243 103.757 255.367 111.581C254.427 115.503 253.487 118.801 252.781 121.122C252.428 122.283 252.133 123.2 251.926 123.829C251.911 123.872 251.896 123.914 251.883 123.955L257.926 133.623L267.323 128.511L271.61 126.178L269.963 130.772L260.811 156.294L267.24 152.359L271.692 149.635L269.968 154.561L259.295 185.046L269.868 205.712L270.356 206.668L269.774 207.569L235.782 260.178L232.359 265.475V237.956L216.754 273.61L214.341 279.122L213.222 273.21L210.354 258.065L205.402 282.446L205.315 282.871L205.051 283.214L174.289 322.985L173.486 324.022L172.24 323.615L155.986 318.309L141.356 323.597L140.17 324.025L139.333 323.082L104.051 283.311L103.687 282.898L103.604 282.354L99.9209 258.054L96.2344 273.302L94.8467 279.041L92.6943 273.542L79.1436 238.923V265.302L75.7363 260.201L40.5908 207.593L39.9541 206.641L40.5186 205.644L52.1729 185.035L40.4023 154.617L38.5518 149.834L43.0381 152.318L50.582 156.496L40.4082 130.83L38.6299 126.346L42.959 128.476L53.4678 133.647L58.8877 124.013C58.8716 123.965 58.8543 123.916 58.8369 123.864C58.6279 123.244 58.3315 122.337 57.9766 121.179C57.2667 118.863 56.3223 115.538 55.3789 111.482C53.4943 103.382 51.6016 92.3212 51.6016 80.5469C51.6016 65.4415 53.2884 50.8525 54.9707 40.0537C55.8124 34.6506 56.6538 30.1871 57.2861 27.0713C57.6023 25.5133 57.8664 24.2913 58.0518 23.457C58.1443 23.0403 58.2174 22.7201 58.2676 22.5029C58.2926 22.3944 58.312 22.3111 58.3252 22.2549C58.3318 22.2269 58.3373 22.2051 58.3408 22.1904C58.3425 22.1833 58.3438 22.1777 58.3447 22.1738C58.3452 22.1719 58.3454 22.1701 58.3457 22.1689V22.168C58.3458 22.1675 58.3463 22.167 60.1553 22.5996L58.3457 22.167L59.123 18.9199L61.4756 21.2891ZM142.233 281.863L137.176 287.113L135.854 288.485L137.257 289.773L154.77 305.858L156.036 307.021L157.295 305.851L174.595 289.767L176.061 288.403L174.594 287.041L168.94 281.791L167.927 280.85L166.733 281.55L166.724 281.556C166.714 281.561 166.699 281.569 166.679 281.581C166.637 281.605 166.572 281.641 166.487 281.688C166.317 281.783 166.063 281.921 165.74 282.088C165.094 282.422 164.178 282.871 163.107 283.319C160.919 284.237 158.274 285.077 156.005 285.105C153.627 285.135 150.789 284.294 148.423 283.356C147.266 282.898 146.271 282.436 145.566 282.09C145.215 281.917 144.938 281.774 144.751 281.676C144.658 281.627 144.587 281.588 144.541 281.563C144.518 281.551 144.501 281.542 144.491 281.536C144.486 281.533 144.482 281.531 144.48 281.53L144.479 281.529L143.229 280.831L142.233 281.863ZM155.249 180.07L168.854 170.301L158.306 226.985L192.433 213.438L186.441 284.82L243.234 164.2L196.696 184L209.74 114.978C209.712 114.948 201.918 106.685 188.899 102.597C178.614 99.3668 168.854 99.3672 168.854 99.3672L155.249 180.07ZM104.824 197.08L122.137 200.587L130.642 214.648L127.305 193.603L86.7529 160.253L104.824 197.08ZM43.998 91.9258L43.0674 92.4629L27.2676 101.584V183.526L24.4775 181.916L0.930664 168.321L0 167.784V85.9844L0.930664 85.4482L41.207 62.1934L43.998 60.583V91.9258ZM269.142 62.1934L309.419 85.4482L310.35 85.9844V167.784L309.419 168.321L285.872 181.916L283.082 183.526V101.585L267.282 92.4629L266.352 91.9258V60.583L269.142 62.1934ZM240.023 48.9785L213.887 94.2236L212.903 95.9258L214.657 96.8135C214.658 96.8141 214.661 96.8158 214.664 96.8174C214.671 96.8209 214.684 96.8269 214.699 96.835C214.731 96.8513 214.78 96.8768 214.846 96.9111C214.977 96.9802 215.174 97.0861 215.428 97.2256C215.935 97.5048 216.67 97.9216 217.563 98.4639C219.354 99.5506 221.769 101.134 224.268 103.119C227.321 105.545 230.549 108.747 233.038 111.375C234.276 112.683 235.32 113.837 236.054 114.662C236.42 115.074 236.709 115.405 236.905 115.631C237.003 115.743 237.078 115.831 237.128 115.889C237.153 115.917 237.172 115.94 237.185 115.954C237.19 115.961 237.195 115.966 237.198 115.97C237.199 115.971 237.201 115.973 237.201 115.974V115.975L239.085 118.188L240.307 115.551L238.619 114.769C240.192 115.497 240.299 115.547 240.307 115.55L240.31 115.544C240.311 115.541 240.312 115.538 240.313 115.534C240.317 115.526 240.323 115.515 240.329 115.502C240.341 115.475 240.358 115.437 240.379 115.389C240.421 115.292 240.481 115.153 240.556 114.973C240.705 114.611 240.916 114.08 241.169 113.385C241.676 111.993 242.354 109.937 243.062 107.239C244.476 101.842 246.005 93.8735 246.507 83.499C247.009 73.1222 246.246 64.6226 245.353 58.7031C244.906 55.7432 244.426 53.4262 244.056 51.8408C243.871 51.0485 243.713 50.438 243.6 50.0215C243.543 49.8136 243.498 49.6531 243.466 49.543C243.45 49.4882 243.437 49.445 243.428 49.415C243.423 49.4002 243.42 49.3875 243.417 49.3789C243.416 49.3748 243.415 49.3708 243.414 49.3682C243.414 49.3669 243.413 49.3651 243.413 49.3643L243.412 49.3633C243.405 49.3648 243.299 49.3971 241.634 49.9092L243.412 49.3623L242.158 45.2842L240.023 48.9785ZM67.9512 49.459L69.7559 49.9092C67.9792 49.4657 67.9517 49.4596 67.9512 49.46V49.4609C67.951 49.4617 67.9505 49.4629 67.9502 49.4639C67.9496 49.4662 67.9482 49.4699 67.9473 49.4736C67.9454 49.4814 67.9427 49.4925 67.9395 49.5059C67.9328 49.5332 67.924 49.5726 67.9121 49.623C67.8882 49.7247 67.8535 49.8734 67.8105 50.0674C67.7245 50.4559 67.6026 51.0287 67.458 51.7793C67.1687 53.2808 66.7862 55.4968 66.4043 58.3828C65.6404 64.1554 64.8799 72.613 64.8799 83.4092C64.8799 94.295 66.4128 102.311 67.9697 107.643C68.7477 110.306 69.5313 112.298 70.1299 113.639C70.429 114.309 70.6822 114.818 70.8652 115.166C70.9565 115.34 71.0315 115.474 71.085 115.568C71.1115 115.615 71.1333 115.653 71.1494 115.681C71.1573 115.694 71.1637 115.706 71.1689 115.715C71.1713 115.719 71.174 115.723 71.1758 115.726C71.1766 115.727 71.1779 115.729 71.1787 115.73L71.1797 115.732L72.7705 114.769L71.1807 115.733L72.5029 117.913L74.1758 115.989V115.988C74.1765 115.987 74.1781 115.986 74.1797 115.984C74.1831 115.98 74.1883 115.974 74.1953 115.966C74.2095 115.95 74.2313 115.925 74.2598 115.893C74.3171 115.827 74.4034 115.729 74.5146 115.604C74.7373 115.352 75.0632 114.986 75.4717 114.535C76.2897 113.632 77.4382 112.386 78.7588 111.017C81.4271 108.25 84.7042 105.081 87.3633 103.175C90.081 101.227 92.836 99.6437 94.9189 98.5449C95.958 97.9968 96.8246 97.5722 97.4277 97.2861C97.729 97.1433 97.9641 97.0345 98.1221 96.9629C98.201 96.9271 98.2609 96.9001 98.2998 96.8828C98.3188 96.8744 98.3329 96.8681 98.3418 96.8643C98.3462 96.8623 98.3498 96.8611 98.3516 96.8604V96.8594L98.3525 96.8604L100.319 96.0049L99.1953 94.1787L71.3398 48.9336L69.0225 45.1689L67.9512 49.459ZM156.894 0.53418L215.985 34.9346L218.007 36.1113L216.405 37.8154L201.01 54.2031L199.992 55.2861L198.711 54.5332L155.946 29.3867L112.256 54.541L111.04 55.2412L110.033 54.2646L93.1318 37.8779L91.3369 36.1377L93.5186 34.9189L155.05 0.517578L155.976 0L156.894 0.53418Z" fill="#222222"></path>
<path d="M384.898 234.559V52.7689H481.766V85.2314H420.996V234.559H384.898ZM428.268 167.816V136.912H476.312V167.816H428.268ZM543.812 180.281C543.812 198.46 550.564 206.511 565.886 206.511C580.689 206.511 587.701 198.46 587.701 180.281H623.799C623.539 215.081 603.023 237.156 565.886 237.156C528.749 237.156 507.973 215.081 507.713 180.281H543.812ZM507.713 173.529V52.7689H543.812V173.529H507.713ZM587.701 173.529V52.7689H623.799V173.529H587.701ZM645.514 234.559V207.03L648.111 202.096H752.77V234.559H645.514ZM648.891 85.2314V52.7689H749.654V80.0374L747.057 85.2314H648.891ZM651.488 195.344L704.207 91.9835H743.681L690.962 195.344H651.488ZM776.35 234.559V52.7689H812.449V234.559H776.35ZM878 146.78C879.559 181.06 901.893 203.395 933.836 203.395C966.039 203.395 988.373 181.06 989.931 146.78H1026.81C1025.25 198.98 987.594 237.156 934.095 237.156C880.338 237.156 842.681 198.98 841.123 146.78H878ZM841.123 140.028C842.681 87.8284 880.338 49.9122 934.095 49.9122C987.594 49.9122 1025.25 88.0881 1026.81 140.028H989.931C988.373 106.007 966.039 83.6732 933.836 83.6732C901.893 83.6732 879.559 106.007 878 140.028H841.123ZM1052.84 234.559V52.7689H1088.16V234.559H1052.84ZM1095.43 130.938V65.7539L1184.77 230.663V234.559H1153.09L1095.43 130.938ZM1149.45 150.416V52.7689H1184.77V215.601L1149.45 150.416Z" fill="#222222"></path>
<path d="M413.792 332.975C396.838 332.975 384.224 322.53 384.224 304.13C384.224 285.57 396.597 275.124 413.792 275.124C416.845 275.124 420.461 275.446 424.077 276.33V287.257C420.541 286.212 417.327 285.57 413.953 285.57C402.704 285.57 395.553 292.48 395.553 304.13C395.553 315.62 402.945 322.53 414.194 322.53C417.327 322.53 420.622 321.887 424.077 320.843V331.77C420.3 332.734 416.684 332.975 413.792 332.975ZM469.004 332.975C452.05 332.975 440.239 320.682 440.239 303.969C440.239 287.257 452.05 275.044 469.004 275.044C485.877 275.044 497.688 287.337 497.688 303.969C497.688 320.682 485.877 332.975 469.004 332.975ZM451.649 303.969C451.649 315.138 458.719 322.53 468.924 322.53C479.208 322.53 486.279 315.138 486.279 303.969C486.279 292.881 479.208 285.489 468.924 285.489C458.719 285.489 451.649 292.881 451.649 303.969ZM519.001 332.172V275.928H548.971V285.971H530.169V301.961H547.284V311.522H530.169V332.172H519.001ZM569.294 332.172V275.928H599.264V285.971H580.463V301.961H597.577V311.522H580.463V332.172H569.294ZM619.587 332.172V275.928H649.558V285.971H630.756V298.908H647.388V308.469H630.756V322.128H649.558V332.172H619.587ZM670.587 332.172V275.928H700.557V285.971H681.755V298.908H698.388V308.469H681.755V322.128H700.557V332.172H670.587ZM783.264 332.975C766.31 332.975 753.696 322.53 753.696 304.13C753.696 285.57 766.069 275.124 783.264 275.124C786.317 275.124 789.933 275.446 793.549 276.33V287.257C790.013 286.212 786.799 285.57 783.425 285.57C772.176 285.57 765.025 292.48 765.025 304.13C765.025 315.62 772.417 322.53 783.666 322.53C786.799 322.53 790.094 321.887 793.549 320.843V331.77C789.772 332.734 786.157 332.975 783.264 332.975ZM838.476 332.975C821.523 332.975 809.711 320.682 809.711 303.969C809.711 287.257 821.523 275.044 838.476 275.044C855.349 275.044 867.161 287.337 867.161 303.969C867.161 320.682 855.349 332.975 838.476 332.975ZM821.121 303.969C821.121 315.138 828.191 322.53 838.396 322.53C848.68 322.53 855.751 315.138 855.751 303.969C855.751 292.881 848.68 285.489 838.396 285.489C828.191 285.489 821.121 292.881 821.121 303.969ZM888.312 332.172V275.928H906.23L917.158 315.138L928.005 275.928H945.44V332.172H934.593V285.57L921.657 332.172H912.256L899.159 285.811V332.172H888.312ZM969.289 332.172V275.928H985.44C997.813 275.928 1006.09 282.597 1006.09 295.533C1006.09 308.63 997.813 315.299 985.44 315.299H980.458V332.172H969.289ZM980.458 305.737H984.315C991.144 305.737 994.68 301.639 994.68 295.533C994.68 289.426 991.144 285.489 984.315 285.489H980.458V305.737ZM1052.27 332.172L1049.46 319.557H1034.35L1031.62 332.172H1019.73L1033.63 275.928H1050.26L1064.16 332.172H1052.27ZM1036.36 310.237H1047.37L1041.83 285.088L1036.36 310.237ZM1115.49 332.172L1095.4 296.015V332.172H1084.47V275.928H1094.51L1114.36 310.96V275.928H1125.29V332.172H1115.49ZM1159.1 332.172V310.237L1144.4 275.928H1155.81L1164.81 299.149L1173.57 275.928H1184.49L1170.19 310.558V332.172H1159.1Z" fill="#222222"></path>
</svg>